<svg width="20" height="22" viewBox="0 0 20 22" fill="none" xmlns="http://www.w3.org/2000/svg">
<path d="M1.34006 15.9998C0.917331 15.2688 0.588725 14.4873 0.362061 13.6738C0.855368 13.4229 1.26965 13.0404 1.55909 12.5687C1.84852 12.097 2.00183 11.5544 2.00203 11.0009C2.00224 10.4475 1.84934 9.90477 1.56026 9.43282C1.27118 8.96088 0.85718 8.57809 0.364061 8.32682C0.816097 6.69231 1.67679 5.19977 2.86506 3.98982C3.32915 4.29155 3.86768 4.45898 4.42104 4.4736C4.9744 4.48822 5.52101 4.34945 6.00039 4.07265C6.47977 3.79586 6.87321 3.39182 7.13719 2.90526C7.40116 2.41871 7.52537 1.8686 7.49606 1.31582C9.13817 0.891445 10.8613 0.892133 12.5031 1.31782C12.474 1.87059 12.5985 2.42061 12.8626 2.90703C13.1268 3.39345 13.5204 3.7973 13.9999 4.07388C14.4794 4.35047 15.026 4.48901 15.5793 4.47417C16.1327 4.45934 16.6711 4.2917 17.1351 3.98982C17.7141 4.57982 18.2281 5.25082 18.6601 5.99982C19.0931 6.74882 19.4171 7.52982 19.6381 8.32582C19.1448 8.57672 18.7305 8.9592 18.441 9.43093C18.1516 9.90266 17.9983 10.4453 17.9981 10.9987C17.9979 11.5522 18.1508 12.0949 18.4399 12.5668C18.7289 13.0388 19.1429 13.4216 19.6361 13.6728C19.184 15.3073 18.3233 16.7999 17.1351 18.0098C16.671 17.7081 16.1324 17.5407 15.5791 17.526C15.0257 17.5114 14.4791 17.6502 13.9997 17.927C13.5204 18.2038 13.1269 18.6078 12.8629 19.0944C12.599 19.5809 12.4748 20.131 12.5041 20.6838C10.862 21.1082 9.13883 21.1075 7.49706 20.6818C7.52611 20.1291 7.40166 19.579 7.13748 19.0926C6.8733 18.6062 6.4797 18.2023 6.00023 17.9258C5.52076 17.6492 4.97412 17.5106 4.42079 17.5255C3.86746 17.5403 3.32902 17.7079 2.86506 18.0098C2.27405 17.4068 1.76166 16.7314 1.34006 15.9998ZM7.00006 16.1958C8.06569 16.8105 8.86691 17.7968 9.25006 18.9658C9.74906 19.0128 10.2501 19.0138 10.7491 18.9668C11.1325 17.7977 11.9341 16.8113 13.0001 16.1968C14.0653 15.5805 15.3206 15.3793 16.5251 15.6318C16.8151 15.2238 17.0651 14.7888 17.2731 14.3338C16.4525 13.4173 15.9992 12.23 16.0001 10.9998C16.0001 9.73982 16.4701 8.56282 17.2731 7.66582C17.0636 7.21097 16.8125 6.77646 16.5231 6.36782C15.3193 6.62013 14.0649 6.4193 13.0001 5.80382C11.9344 5.18919 11.1332 4.20281 10.7501 3.03382C10.2511 2.98682 9.75006 2.98582 9.25106 3.03282C8.86766 4.20197 8.06606 5.18838 7.00006 5.80282C5.93484 6.41914 4.67954 6.62034 3.47506 6.36782C3.18563 6.77611 2.93519 7.21069 2.72706 7.66582C3.54763 8.58238 4.00094 9.76961 4.00006 10.9998C4.00006 12.2598 3.53006 13.4368 2.72706 14.3338C2.93653 14.7887 3.1876 15.2232 3.47706 15.6318C4.68078 15.3795 5.93527 15.5803 7.00006 16.1958ZM10.0001 13.9998C9.20441 13.9998 8.44135 13.6838 7.87874 13.1211C7.31613 12.5585 7.00006 11.7955 7.00006 10.9998C7.00006 10.2042 7.31613 9.44111 7.87874 8.8785C8.44135 8.31589 9.20441 7.99982 10.0001 7.99982C10.7957 7.99982 11.5588 8.31589 12.1214 8.8785C12.684 9.44111 13.0001 10.2042 13.0001 10.9998C13.0001 11.7955 12.684 12.5585 12.1214 13.1211C11.5588 13.6838 10.7957 13.9998 10.0001 13.9998ZM10.0001 11.9998C10.2653 11.9998 10.5196 11.8945 10.7072 11.7069C10.8947 11.5194 11.0001 11.265 11.0001 10.9998C11.0001 10.7346 10.8947 10.4803 10.7072 10.2927C10.5196 10.1052 10.2653 9.99982 10.0001 9.99982C9.73484 9.99982 9.48049 10.1052 9.29295 10.2927C9.10542 10.4803 9.00006 10.7346 9.00006 10.9998C9.00006 11.265 9.10542 11.5194 9.29295 11.7069C9.48049 11.8945 9.73484 11.9998 10.0001 11.9998Z" fill="white"/>
</svg>
