<svg width="26" height="24" viewBox="0 0 26 24" fill="none" xmlns="http://www.w3.org/2000/svg">
<path d="M1.33341 9.50013H4.83342V23.5001H1.33341C1.024 23.5001 0.727249 23.3772 0.508457 23.1584C0.289664 22.9396 0.166748 22.6429 0.166748 22.3335V10.6668C0.166748 10.3574 0.289664 10.0606 0.508457 9.84184C0.727249 9.62305 1.024 9.50013 1.33341 9.50013ZM7.50858 7.99163L14.9752 0.524963C15.0745 0.42544 15.2063 0.365091 15.3465 0.355017C15.4867 0.344943 15.6258 0.385819 15.7382 0.47013L16.7334 1.2168C17.0098 1.42428 17.2186 1.70896 17.3334 2.03493C17.4482 2.3609 17.4639 2.71357 17.3786 3.04846L16.0334 8.33346H23.5001C24.1189 8.33346 24.7124 8.5793 25.15 9.01688C25.5876 9.45447 25.8334 10.048 25.8334 10.6668V13.1215C25.8337 13.4264 25.7743 13.7284 25.6584 14.0105L22.0476 22.778C21.9595 22.9917 21.8099 23.1745 21.6178 23.3031C21.4256 23.4316 21.1996 23.5002 20.9684 23.5001H8.33342C8.024 23.5001 7.72725 23.3772 7.50846 23.1584C7.28967 22.9396 7.16675 22.6429 7.16675 22.3335V8.81646C7.16681 8.50707 7.28977 8.21037 7.50858 7.99163Z" fill="#3E3E3E"/>
</svg>
